<?xml version="1.0" encoding="UTF-8" standalone="no"?>
<svg
   viewBox="0 0 640 640"
   version="1.1"
   id="svg1"
   sodipodi:docname="whiteHouseIcon.svg"
   inkscape:version="1.4.2 (ebf0e94, 2025-05-08)"
   xmlns:inkscape="http://www.inkscape.org/namespaces/inkscape"
   xmlns:sodipodi="http://sodipodi.sourceforge.net/DTD/sodipodi-0.dtd"
   xmlns="http://www.w3.org/2000/svg"
   xmlns:svg="http://www.w3.org/2000/svg">
  <defs
     id="defs1" />
  <sodipodi:namedview
     id="namedview1"
     pagecolor="#505050"
     bordercolor="#eeeeee"
     borderopacity="1"
     inkscape:showpageshadow="0"
     inkscape:pageopacity="0"
     inkscape:pagecheckerboard="0"
     inkscape:deskcolor="#505050"
     inkscape:zoom="1.15"
     inkscape:cx="319.56522"
     inkscape:cy="320"
     inkscape:window-width="1920"
     inkscape:window-height="939"
     inkscape:window-x="0"
     inkscape:window-y="32"
     inkscape:window-maximized="1"
     inkscape:current-layer="svg1" />
  <!--!Font Awesome Free 7.1.0 by @fontawesome - https://fontawesome.com License - https://fontawesome.com/license/free Copyright 2025 Fonticons, Inc.-->
  <path
     fill="#ffffff"
     d="M341.8 72.6C329.5 61.2 310.5 61.2 298.3 72.6L74.3 280.6C64.7 289.6 61.5 303.5 66.3 315.7C71.1 327.9 82.8 336 96 336L112 336L112 512C112 547.3 140.7 576 176 576L464 576C499.3 576 528 547.3 528 512L528 336L544 336C557.2 336 569 327.9 573.8 315.7C578.6 303.5 575.4 289.5 565.8 280.6L341.8 72.6zM304 384L336 384C362.5 384 384 405.5 384 432L384 528L256 528L256 432C256 405.5 277.5 384 304 384z"
     id="path1" />
  <path
     style="fill:#00ccbb;stroke-width:0.869565;fill-opacity:1"
     d="M 165.88121,574.76237 C 141.736,570.64811 122.1033,552.95424 114.61097,528.55534 l -1.95958,-6.38143 -0.26846,-93.26087 -0.26846,-93.26087 h -9.87868 c -11.655387,0 -18.675167,-1.82083 -24.990055,-6.48207 C 65.775483,320.70351 61.487063,304.4139 67.335262,291.52506 70.47198,284.61204 64.848121,290.00377 194.99939,169.13043 314.09248,58.526995 306.6029,64.782609 319.93061,64.782609 c 13.59351,0 4.57499,-7.57457 133.11287,111.800291 65.08906,60.4491 115.52456,107.93894 117.07948,110.24152 3.19847,4.73644 5.52921,11.97369 5.52921,17.16898 0,8.91829 -5.55088,19.75362 -12.89791,25.1767 -6.31489,4.66124 -13.33466,6.48207 -24.99005,6.48207 h -9.87868 l -0.26846,93.26087 -0.26846,93.26087 -1.99453,6.50754 c -6.6879,21.82054 -21.62178,36.89994 -44.04973,44.47898 l -6.08696,2.05696 -152.60869,0.1234 c -83.93479,0.0679 -154.46216,-0.19242 -156.72749,-0.57842 z M 384.34783,477.5304 c 0,-48.19299 -0.10029,-51.55737 -1.72639,-57.91535 -2.28237,-8.92398 -6.03982,-15.34586 -13.00318,-22.22375 -6.53905,-6.4588 -14.53211,-10.77713 -23.44503,-12.66644 -7.9678,-1.68896 -44.38818,-1.68693 -52.36043,0.003 -8.58372,1.81946 -17.62903,6.74826 -23.8293,12.98462 -6.60739,6.64585 -10.37908,13.19963 -12.60494,21.90265 -1.6261,6.35798 -1.72639,9.72236 -1.72639,57.91535 v 51.16525 H 320 384.34783 Z"
     id="path2" />
</svg>
